<svg xmlns="http://www.w3.org/2000/svg" xmlns:xlink="http://www.w3.org/1999/xlink" version="1.1" width="256" height="256" viewBox="0 0 256 256" xml:space="preserve">
<g style="stroke: none; stroke-width: 0; stroke-dasharray: none; stroke-linecap: butt; stroke-linejoin: miter; stroke-miterlimit: 10; fill: none; fill-rule: nonzero; opacity: 1;" transform="translate(1.4065934065934016 1.4065934065934016) scale(2.81 2.81)">
&#x9;<path d="M 73.526 56.696 c -3.146 0 -5.706 -2.56 -5.706 -5.706 c 0 -3.146 2.56 -5.705 5.706 -5.705 s 5.706 2.56 5.706 5.705 C 79.232 54.137 76.673 56.696 73.526 56.696 z M 73.526 48.285 c -1.492 0 -2.706 1.214 -2.706 2.705 c 0 1.492 1.214 2.706 2.706 2.706 s 2.706 -1.214 2.706 -2.706 C 76.232 49.499 75.019 48.285 73.526 48.285 z" style="stroke: none; stroke-width: 1; stroke-dasharray: none; stroke-linecap: butt; stroke-linejoin: miter; stroke-miterlimit: 10; fill: rgb(0,0,0); fill-rule: nonzero; opacity: 1;" transform=" matrix(1 0 0 1 0 0) " stroke-linecap="round"></path>
&#x9;<path d="M 20.163 56.696 c -3.146 0 -5.706 -2.56 -5.706 -5.706 c 0 -3.146 2.56 -5.705 5.706 -5.705 s 5.706 2.56 5.706 5.705 C 25.869 54.137 23.31 56.696 20.163 56.696 z M 20.163 48.285 c -1.492 0 -2.706 1.214 -2.706 2.705 c 0 1.492 1.214 2.706 2.706 2.706 s 2.706 -1.214 2.706 -2.706 C 22.869 49.499 21.655 48.285 20.163 48.285 z" style="stroke: none; stroke-width: 1; stroke-dasharray: none; stroke-linecap: butt; stroke-linejoin: miter; stroke-miterlimit: 10; fill: rgb(0,0,0); fill-rule: nonzero; opacity: 1;" transform=" matrix(1 0 0 1 0 0) " stroke-linecap="round"></path>
&#x9;<path d="M 73.528 51.987 c -0.133 0 -0.266 -0.027 -0.385 -0.073 c -0.12 -0.053 -0.226 -0.126 -0.319 -0.219 c -0.193 -0.186 -0.299 -0.439 -0.299 -0.704 c 0 -0.067 0.014 -0.133 0.027 -0.193 c 0.006 -0.067 0.027 -0.127 0.053 -0.186 c 0.027 -0.06 0.06 -0.119 0.093 -0.173 c 0.033 -0.053 0.079 -0.106 0.126 -0.153 c 0.226 -0.232 0.572 -0.339 0.897 -0.272 c 0.06 0.014 0.127 0.033 0.186 0.053 c 0.06 0.027 0.12 0.06 0.173 0.093 c 0.053 0.04 0.106 0.079 0.153 0.126 s 0.086 0.1 0.119 0.153 c 0.04 0.053 0.067 0.113 0.093 0.173 c 0.027 0.06 0.046 0.119 0.06 0.186 c 0.013 0.06 0.02 0.126 0.02 0.193 c 0 0.265 -0.106 0.518 -0.293 0.704 C 74.04 51.88 73.794 51.987 73.528 51.987 z" style="stroke: none; stroke-width: 1; stroke-dasharray: none; stroke-linecap: butt; stroke-linejoin: miter; stroke-miterlimit: 10; fill: rgb(0,0,0); fill-rule: nonzero; opacity: 1;" transform=" matrix(1 0 0 1 0 0) " stroke-linecap="round"></path>
&#x9;<path d="M 20.16 51.994 c -0.267 0 -0.513 -0.107 -0.707 -0.294 c -0.093 -0.093 -0.167 -0.206 -0.213 -0.327 c -0.053 -0.12 -0.08 -0.247 -0.08 -0.38 c 0 -0.267 0.107 -0.52 0.293 -0.707 c 0.373 -0.373 1.04 -0.373 1.413 0 c 0.187 0.187 0.293 0.44 0.293 0.707 c 0 0.133 -0.027 0.26 -0.073 0.38 c -0.053 0.12 -0.127 0.234 -0.22 0.327 C 20.68 51.887 20.427 51.994 20.16 51.994 z" style="stroke: none; stroke-width: 1; stroke-dasharray: none; stroke-linecap: butt; stroke-linejoin: miter; stroke-miterlimit: 10; fill: rgb(0,0,0); fill-rule: nonzero; opacity: 1;" transform=" matrix(1 0 0 1 0 0) " stroke-linecap="round"></path>
&#x9;<path d="M 80.837 25.509 H 4.179 C 1.875 25.509 0 27.383 0 29.688 v 18.638 c 0 1.117 0.435 2.167 1.226 2.956 c 0.79 0.789 1.838 1.223 2.955 1.223 c 0.001 0 0.002 0 0.003 0 l 8.423 -0.01 c -0.097 -0.487 -0.15 -0.989 -0.15 -1.504 c 0 -4.249 3.457 -7.705 7.706 -7.705 s 7.706 3.456 7.706 7.705 c 0 0.513 -0.053 1.014 -0.149 1.5 h 38.249 c -0.096 -0.486 -0.149 -0.987 -0.149 -1.5 c 0 -4.249 3.457 -7.705 7.706 -7.705 s 7.706 3.456 7.706 7.705 c 0 0.516 -0.053 1.019 -0.15 1.507 l 5.147 0.01 c 2.079 0 3.771 -1.691 3.771 -3.771 v -7.608 C 90 34.85 87.56 25.509 80.837 25.509 z M 22.298 38.552 H 8.906 c -0.489 0 -0.886 -0.397 -0.886 -0.886 v -9.157 h 14.278 V 38.552 z M 39.576 38.552 H 25.298 V 28.509 h 14.278 V 38.552 z M 56.854 38.552 H 42.576 V 28.509 h 14.278 V 38.552 z M 74.133 38.552 H 59.854 V 28.509 h 14.278 V 38.552 z M 87 43.634 l -2.983 -0.002 c -0.502 -1.726 -1.817 -3.074 -3.535 -3.618 l -3.349 -1.061 V 28.509 h 3.704 c 4.204 0 6.163 7.53 6.163 12.619 V 43.634 z" style="stroke: none; stroke-width: 1; stroke-dasharray: none; stroke-linecap: butt; stroke-linejoin: miter; stroke-miterlimit: 10; fill: rgb(0,0,0); fill-rule: nonzero; opacity: 1;" transform=" matrix(1 0 0 1 0 0) " stroke-linecap="round"></path>
</g>
</svg>