<svg xmlns="http://www.w3.org/2000/svg" xmlns:xlink="http://www.w3.org/1999/xlink" version="1.1" width="256" height="256" viewBox="0 0 256 256" xml:space="preserve">
<g style="stroke: none; stroke-width: 0; stroke-dasharray: none; stroke-linecap: butt; stroke-linejoin: miter; stroke-miterlimit: 10; fill: none; fill-rule: nonzero; opacity: 1;" transform="translate(1.4065934065934016 1.4065934065934016) scale(2.81 2.81)">
&#x9;<path d="M 75.58 63.801 c -4.24 0 -7.69 -3.449 -7.69 -7.689 s 3.45 -7.69 7.69 -7.69 s 7.689 3.45 7.689 7.69 S 79.82 63.801 75.58 63.801 z M 75.58 51.421 c -2.586 0 -4.69 2.104 -4.69 4.69 s 2.104 4.689 4.69 4.689 s 4.689 -2.104 4.689 -4.689 S 78.166 51.421 75.58 51.421 z" style="stroke: none; stroke-width: 1; stroke-dasharray: none; stroke-linecap: butt; stroke-linejoin: miter; stroke-miterlimit: 10; fill: rgb(0,0,0); fill-rule: nonzero; opacity: 1;" transform=" matrix(1 0 0 1 0 0) " stroke-linecap="round"></path>
&#x9;<path d="M 21.055 63.801 c -4.24 0 -7.69 -3.449 -7.69 -7.689 s 3.45 -7.69 7.69 -7.69 s 7.69 3.45 7.69 7.69 S 25.295 63.801 21.055 63.801 z M 21.055 51.421 c -2.586 0 -4.69 2.104 -4.69 4.69 s 2.104 4.689 4.69 4.689 s 4.69 -2.104 4.69 -4.689 S 23.641 51.421 21.055 51.421 z" style="stroke: none; stroke-width: 1; stroke-dasharray: none; stroke-linecap: butt; stroke-linejoin: miter; stroke-miterlimit: 10; fill: rgb(0,0,0); fill-rule: nonzero; opacity: 1;" transform=" matrix(1 0 0 1 0 0) " stroke-linecap="round"></path>
&#x9;<path d="M 75.58 58.609 c -0.66 0 -1.3 -0.27 -1.771 -0.729 c -0.46 -0.47 -0.729 -1.11 -0.729 -1.771 c 0 -0.659 0.27 -1.3 0.729 -1.77 c 0.12 -0.11 0.24 -0.22 0.38 -0.31 c 0.141 -0.091 0.28 -0.171 0.431 -0.23 c 0.149 -0.06 0.31 -0.11 0.47 -0.14 c 0.32 -0.061 0.66 -0.061 0.979 0 c 0.16 0.029 0.32 0.08 0.471 0.14 c 0.149 0.06 0.29 0.14 0.43 0.23 c 0.13 0.09 0.26 0.199 0.38 0.31 c 0.11 0.12 0.22 0.25 0.311 0.38 c 0.09 0.14 0.159 0.28 0.229 0.43 C 77.95 55.31 78 55.46 78.03 55.62 c 0.029 0.16 0.05 0.33 0.05 0.489 c 0 0.66 -0.271 1.301 -0.73 1.771 c -0.12 0.11 -0.25 0.22 -0.38 0.31 c -0.14 0.091 -0.28 0.17 -0.43 0.23 c -0.15 0.06 -0.311 0.11 -0.471 0.14 C 75.91 58.6 75.74 58.609 75.58 58.609 z" style="stroke: none; stroke-width: 1; stroke-dasharray: none; stroke-linecap: butt; stroke-linejoin: miter; stroke-miterlimit: 10; fill: rgb(0,0,0); fill-rule: nonzero; opacity: 1;" transform=" matrix(1 0 0 1 0 0) " stroke-linecap="round"></path>
&#x9;<path d="M 21.06 58.609 c -0.66 0 -1.31 -0.27 -1.77 -0.729 c -0.47 -0.47 -0.73 -1.11 -0.73 -1.771 c 0 -0.659 0.26 -1.3 0.73 -1.77 c 0.92 -0.92 2.6 -0.93 3.53 0 c 0.47 0.47 0.73 1.11 0.73 1.77 c 0 0.66 -0.26 1.301 -0.73 1.771 C 22.36 58.34 21.71 58.609 21.06 58.609 z" style="stroke: none; stroke-width: 1; stroke-dasharray: none; stroke-linecap: butt; stroke-linejoin: miter; stroke-miterlimit: 10; fill: rgb(0,0,0); fill-rule: nonzero; opacity: 1;" transform=" matrix(1 0 0 1 0 0) " stroke-linecap="round"></path>
&#x9;<path d="M 86.32 39.659 l -17.562 -5.531 l -8.593 -4.985 c -3.318 -1.926 -7.101 -2.944 -10.938 -2.944 h -4.807 c -0.01 0 -0.019 0 -0.029 0 H 13.051 c -2.763 0 -5.358 1.475 -6.773 3.849 l -5.549 9.316 C 0.252 40.164 0 41.08 0 42.012 v 10.465 c 0 2.404 1.633 4.474 3.97 5.033 l 7.989 1.911 c -0.378 -1.034 -0.594 -2.146 -0.594 -3.309 c 0 -5.344 4.347 -9.69 9.69 -9.69 s 9.69 4.347 9.69 9.69 c 0 1.466 -0.337 2.852 -0.922 4.099 h 36.989 c -0.585 -1.247 -0.922 -2.633 -0.922 -4.099 c 0 -5.344 4.347 -9.69 9.69 -9.69 c 5.343 0 9.689 4.347 9.689 9.69 c 0 1.292 -0.259 2.523 -0.72 3.651 l 0.91 -0.125 c 2.588 -0.358 4.54 -2.598 4.54 -5.21 v -9.751 C 90 42.368 88.521 40.353 86.32 39.659 z M 25.667 39.64 H 14.434 c -0.66 0 -0.999 -0.435 -1.115 -0.622 c -0.115 -0.187 -0.352 -0.685 -0.057 -1.275 l 4.278 -8.544 h 11.236 L 25.667 39.64 z M 28.797 39.64 l 3.109 -10.441 h 11.281 l 2.16 10.441 H 28.797 z M 65.146 36.76 c -1.531 1.83 -3.778 2.88 -6.165 2.88 H 48.411 l -2.16 -10.441 h 2.977 c 3.31 0 6.571 0.878 9.433 2.539 l 7.196 4.175 L 65.146 36.76 z" style="stroke: none; stroke-width: 1; stroke-dasharray: none; stroke-linecap: butt; stroke-linejoin: miter; stroke-miterlimit: 10; fill: rgb(0,0,0); fill-rule: nonzero; opacity: 1;" transform=" matrix(1 0 0 1 0 0) " stroke-linecap="round"></path>
</g>
</svg>