<svg xmlns="http://www.w3.org/2000/svg" xmlns:xlink="http://www.w3.org/1999/xlink" version="1.1" width="256" height="256" viewBox="0 0 256 256" xml:space="preserve">
<g style="stroke: none; stroke-width: 0; stroke-dasharray: none; stroke-linecap: butt; stroke-linejoin: miter; stroke-miterlimit: 10; fill: none; fill-rule: nonzero; opacity: 1;" transform="translate(1.4065934065934016 1.4065934065934016) scale(2.81 2.81)">
&#x9;<path d="M 74.71 61.015 c -4.465 0 -8.098 -3.633 -8.098 -8.098 s 3.632 -8.098 8.098 -8.098 c 4.465 0 8.098 3.632 8.098 8.098 S 79.175 61.015 74.71 61.015 z M 74.71 47.786 c -2.829 0 -5.13 2.302 -5.13 5.13 c 0 2.83 2.302 5.131 5.13 5.131 c 2.83 0 5.131 -2.302 5.131 -5.131 C 79.841 50.088 77.54 47.786 74.71 47.786 z" style="stroke: none; stroke-width: 1; stroke-dasharray: none; stroke-linecap: butt; stroke-linejoin: miter; stroke-miterlimit: 10; fill: rgb(0,0,0); fill-rule: nonzero; opacity: 1;" transform=" matrix(1 0 0 1 0 0) " stroke-linecap="round"></path>
&#x9;<path d="M 19.412 61.015 c -4.465 0 -8.098 -3.633 -8.098 -8.098 s 3.633 -8.098 8.098 -8.098 s 8.098 3.632 8.098 8.098 S 23.877 61.015 19.412 61.015 z M 19.412 47.786 c -2.829 0 -5.131 2.302 -5.131 5.13 c 0 2.83 2.302 5.131 5.131 5.131 s 5.131 -2.302 5.131 -5.131 C 24.543 50.088 22.242 47.786 19.412 47.786 z" style="stroke: none; stroke-width: 1; stroke-dasharray: none; stroke-linecap: butt; stroke-linejoin: miter; stroke-miterlimit: 10; fill: rgb(0,0,0); fill-rule: nonzero; opacity: 1;" transform=" matrix(1 0 0 1 0 0) " stroke-linecap="round"></path>
&#x9;<path d="M 74.71 55.878 c -0.792 0 -1.543 -0.297 -2.098 -0.871 c -0.574 -0.552 -0.869 -1.306 -0.869 -2.096 c 0 -0.773 0.317 -1.543 0.869 -2.098 c 0.693 -0.672 1.721 -1.008 2.671 -0.809 c 0.197 0.039 0.375 0.099 0.552 0.178 c 0.18 0.079 0.357 0.158 0.516 0.276 c 0.158 0.099 0.317 0.218 0.454 0.355 c 0.554 0.554 0.871 1.325 0.871 2.098 c 0 0.79 -0.317 1.543 -0.871 2.096 c -0.276 0.297 -0.593 0.495 -0.97 0.653 C 75.481 55.818 75.106 55.878 74.71 55.878 z" style="stroke: none; stroke-width: 1; stroke-dasharray: none; stroke-linecap: butt; stroke-linejoin: miter; stroke-miterlimit: 10; fill: rgb(0,0,0); fill-rule: nonzero; opacity: 1;" transform=" matrix(1 0 0 1 0 0) " stroke-linecap="round"></path>
&#x9;<path d="M 19.414 55.882 c -0.791 0 -1.543 -0.317 -2.097 -0.89 c -0.574 -0.552 -0.87 -1.306 -0.87 -2.096 c 0 -0.178 0.019 -0.377 0.059 -0.574 c 0.04 -0.178 0.099 -0.377 0.158 -0.554 c 0.079 -0.178 0.178 -0.355 0.277 -0.514 c 0.119 -0.158 0.238 -0.317 0.376 -0.456 c 1.088 -1.088 3.086 -1.107 4.194 0 c 0.138 0.139 0.257 0.297 0.376 0.456 c 0.099 0.158 0.198 0.336 0.257 0.514 c 0.079 0.178 0.138 0.377 0.178 0.554 c 0.04 0.197 0.06 0.396 0.06 0.574 c 0 0.79 -0.317 1.543 -0.87 2.096 C 20.957 55.565 20.205 55.882 19.414 55.882 z" style="stroke: none; stroke-width: 1; stroke-dasharray: none; stroke-linecap: butt; stroke-linejoin: miter; stroke-miterlimit: 10; fill: rgb(0,0,0); fill-rule: nonzero; opacity: 1;" transform=" matrix(1 0 0 1 0 0) " stroke-linecap="round"></path>
&#x9;<path d="M 82.043 41.614 l -17.684 -4.194 l -8.988 -5.215 c -3.631 -2.107 -7.769 -3.221 -11.969 -3.221 H 12.586 c -2.114 0 -4.135 1.008 -5.407 2.697 l -5.431 7.215 C 0.621 40.395 0 42.251 0 44.125 v 6.336 c 0 1.659 1.068 3.094 2.659 3.57 l 7.235 2.162 c -0.355 -1.029 -0.557 -2.128 -0.557 -3.276 c 0 -5.555 4.52 -10.076 10.076 -10.076 s 10.076 4.52 10.076 10.076 c 0 1.524 -0.35 2.965 -0.958 4.261 h 37.063 c -0.608 -1.296 -0.958 -2.737 -0.958 -4.261 c 0 -5.555 4.52 -10.076 10.076 -10.076 c 5.556 0 10.077 4.52 10.077 10.076 c 0 1.351 -0.272 2.639 -0.756 3.818 l 2.383 -0.329 C 88.458 56.123 90 54.354 90 52.29 v -0.612 C 90 46.863 86.728 42.725 82.043 41.614 z M 20.586 39.391 h -7.688 c -0.24 0 -0.36 -0.15 -0.411 -0.239 s -0.118 -0.27 0.005 -0.476 l 4.007 -6.725 h 7.145 L 20.586 39.391 z M 23.793 39.391 l 3.057 -7.439 h 12.442 l 2.125 7.439 H 23.793 z M 55.878 39.391 H 44.503 l -2.125 -7.439 h 1.023 c 3.677 0 7.301 0.975 10.479 2.82 l 6.584 3.82 C 58.99 39.113 57.454 39.391 55.878 39.391 z" style="stroke: none; stroke-width: 1; stroke-dasharray: none; stroke-linecap: butt; stroke-linejoin: miter; stroke-miterlimit: 10; fill: rgb(0,0,0); fill-rule: nonzero; opacity: 1;" transform=" matrix(1 0 0 1 0 0) " stroke-linecap="round"></path>
</g>
</svg>