<svg xmlns="http://www.w3.org/2000/svg" xmlns:xlink="http://www.w3.org/1999/xlink" version="1.1" width="256" height="256" viewBox="0 0 256 256" xml:space="preserve">
<g style="stroke: none; stroke-width: 0; stroke-dasharray: none; stroke-linecap: butt; stroke-linejoin: miter; stroke-miterlimit: 10; fill: none; fill-rule: nonzero; opacity: 1;" transform="translate(1.4065934065934016 1.4065934065934016) scale(2.81 2.81)">
&#x9;<path d="M 20.922 43.657 c -10.181 0 -18.434 8.253 -18.434 18.434 s 8.253 18.434 18.434 18.434 s 18.434 -8.253 18.434 -18.434 S 31.102 43.657 20.922 43.657 z M 20.922 70.215 c -4.487 0 -8.124 -3.637 -8.124 -8.124 c 0 -4.487 3.637 -8.124 8.124 -8.124 c 4.487 0 8.124 3.637 8.124 8.124 C 29.046 66.577 25.408 70.215 20.922 70.215 z" style="stroke: none; stroke-width: 1; stroke-dasharray: none; stroke-linecap: butt; stroke-linejoin: miter; stroke-miterlimit: 10; fill: rgb(0,0,0); fill-rule: nonzero; opacity: 1;" transform=" matrix(1 0 0 1 0 0) " stroke-linecap="round"></path>
&#x9;<path d="M 76.165 52.854 c -7.641 0 -13.835 6.194 -13.835 13.835 s 6.194 13.835 13.835 13.835 S 90 74.33 90 66.689 S 83.806 52.854 76.165 52.854 z M 76.165 70.382 c -2.039 0 -3.693 -1.653 -3.693 -3.693 c 0 -2.039 1.653 -3.693 3.693 -3.693 c 2.039 0 3.693 1.653 3.693 3.693 C 79.857 68.729 78.204 70.382 76.165 70.382 z" style="stroke: none; stroke-width: 1; stroke-dasharray: none; stroke-linecap: butt; stroke-linejoin: miter; stroke-miterlimit: 10; fill: rgb(0,0,0); fill-rule: nonzero; opacity: 1;" transform=" matrix(1 0 0 1 0 0) " stroke-linecap="round"></path>
&#x9;<path d="M 76.165 47.882 c 2.743 0 5.343 0.604 7.696 1.665 v -3.231 c 0 -3.895 -2.791 -7.173 -6.638 -7.793 l -2.579 -0.416 V 27.5 c 0 -1.948 1.585 -3.533 3.533 -3.533 c 1.373 0 2.486 -1.113 2.486 -2.486 c 0 -1.373 -1.113 -2.486 -2.486 -2.486 c -4.69 0 -8.505 3.816 -8.505 8.505 v 9.805 l -16.048 -2.587 l -4.322 -20.27 h 4.304 c 1.373 0 2.486 -1.113 2.486 -2.486 s -1.113 -2.486 -2.486 -2.486 h -7.376 h -30.31 h -8.37 c -1.373 0 -2.486 1.113 -2.486 2.486 s 1.113 2.486 2.486 2.486 h 5.884 v 19.044 c -4.714 1.229 -9.05 3.605 -12.64 6.942 c -1.006 0.935 -1.063 2.509 -0.128 3.514 c 0.49 0.527 1.155 0.793 1.821 0.793 c 0.606 0 1.213 -0.22 1.692 -0.665 c 3.404 -3.166 7.615 -5.291 12.177 -6.147 c 1.856 -0.349 3.74 -0.487 5.605 -0.41 c 13.208 0.543 23.554 11.559 23.554 25.078 v 4.093 c 0 1.373 1.113 2.486 2.486 2.486 h 9.539 c -0.108 -0.816 -0.184 -1.641 -0.184 -2.486 C 57.357 56.319 65.795 47.882 76.165 47.882 z M 31.304 34.415 c -2.857 -1.08 -5.925 -1.733 -9.139 -1.866 c -1.25 -0.052 -2.506 -0.023 -3.76 0.086 V 14.448 h 25.812 l 4.257 19.968 H 31.304 z" style="stroke: none; stroke-width: 1; stroke-dasharray: none; stroke-linecap: butt; stroke-linejoin: miter; stroke-miterlimit: 10; fill: rgb(0,0,0); fill-rule: nonzero; opacity: 1;" transform=" matrix(1 0 0 1 0 0) " stroke-linecap="round"></path>
</g>
</svg>