<svg xmlns="http://www.w3.org/2000/svg" xmlns:xlink="http://www.w3.org/1999/xlink" version="1.1" width="256" height="256" viewBox="0 0 256 256" xml:space="preserve">
<g style="stroke: none; stroke-width: 0; stroke-dasharray: none; stroke-linecap: butt; stroke-linejoin: miter; stroke-miterlimit: 10; fill: none; fill-rule: nonzero; opacity: 1;" transform="translate(1.4065934065934016 1.4065934065934016) scale(2.81 2.81)">
&#x9;<path d="M 73.088 70.227 c -4.391 0 -7.963 -3.571 -7.963 -7.962 s 3.572 -7.963 7.963 -7.963 s 7.962 3.572 7.962 7.963 S 77.479 70.227 73.088 70.227 z M 73.088 57.302 c -2.736 0 -4.963 2.227 -4.963 4.963 s 2.227 4.962 4.963 4.962 s 4.962 -2.226 4.962 -4.962 S 75.824 57.302 73.088 57.302 z" style="stroke: none; stroke-width: 1; stroke-dasharray: none; stroke-linecap: butt; stroke-linejoin: miter; stroke-miterlimit: 10; fill: rgb(0,0,0); fill-rule: nonzero; opacity: 1;" transform=" matrix(1 0 0 1 0 0) " stroke-linecap="round"></path>
&#x9;<path d="M 13.812 70.227 c -4.391 0 -7.963 -3.571 -7.963 -7.962 s 3.572 -7.963 7.963 -7.963 s 7.962 3.572 7.962 7.963 S 18.203 70.227 13.812 70.227 z M 13.812 57.302 c -2.736 0 -4.963 2.227 -4.963 4.963 s 2.227 4.962 4.963 4.962 s 4.962 -2.226 4.962 -4.962 S 16.548 57.302 13.812 57.302 z" style="stroke: none; stroke-width: 1; stroke-dasharray: none; stroke-linecap: butt; stroke-linejoin: miter; stroke-miterlimit: 10; fill: rgb(0,0,0); fill-rule: nonzero; opacity: 1;" transform=" matrix(1 0 0 1 0 0) " stroke-linecap="round"></path>
&#x9;<path d="M 73.09 64.76 c -0.16 0 -0.33 -0.01 -0.49 -0.05 c -0.16 -0.03 -0.319 -0.08 -0.47 -0.141 c -0.15 -0.06 -0.29 -0.14 -0.43 -0.229 c -0.141 -0.09 -0.261 -0.19 -0.381 -0.31 c -0.119 -0.11 -0.22 -0.24 -0.31 -0.381 c -0.09 -0.13 -0.17 -0.279 -0.229 -0.43 c -0.061 -0.15 -0.11 -0.31 -0.141 -0.47 c -0.04 -0.16 -0.05 -0.32 -0.05 -0.49 c 0 -0.16 0.01 -0.32 0.05 -0.479 c 0.03 -0.16 0.08 -0.32 0.141 -0.471 c 0.06 -0.149 0.14 -0.3 0.229 -0.43 c 0.09 -0.14 0.19 -0.271 0.31 -0.38 c 0.931 -0.931 2.601 -0.94 3.53 0 c 0.12 0.109 0.23 0.24 0.32 0.38 c 0.09 0.13 0.16 0.28 0.229 0.43 c 0.061 0.15 0.11 0.311 0.141 0.471 c 0.029 0.159 0.05 0.319 0.05 0.479 c 0 0.17 -0.021 0.33 -0.05 0.49 c -0.03 0.16 -0.08 0.319 -0.141 0.47 c -0.069 0.15 -0.14 0.3 -0.229 0.43 c -0.09 0.141 -0.2 0.271 -0.32 0.381 c -0.109 0.119 -0.24 0.22 -0.37 0.31 c -0.14 0.09 -0.29 0.17 -0.439 0.229 c -0.15 0.061 -0.3 0.11 -0.46 0.141 C 73.41 64.75 73.25 64.76 73.09 64.76 z" style="stroke: none; stroke-width: 1; stroke-dasharray: none; stroke-linecap: butt; stroke-linejoin: miter; stroke-miterlimit: 10; fill: rgb(0,0,0); fill-rule: nonzero; opacity: 1;" transform=" matrix(1 0 0 1 0 0) " stroke-linecap="round"></path>
&#x9;<path d="M 13.81 64.77 c -0.16 0 -0.33 -0.02 -0.49 -0.05 c -0.16 -0.04 -0.31 -0.08 -0.46 -0.15 c -0.15 -0.06 -0.3 -0.14 -0.44 -0.229 c -0.13 -0.09 -0.26 -0.19 -0.37 -0.31 c -0.12 -0.11 -0.22 -0.24 -0.32 -0.381 c -0.09 -0.13 -0.16 -0.279 -0.23 -0.43 c -0.06 -0.15 -0.11 -0.31 -0.14 -0.47 c -0.03 -0.16 -0.05 -0.32 -0.05 -0.48 c 0 -0.17 0.02 -0.33 0.05 -0.489 c 0.03 -0.16 0.08 -0.32 0.14 -0.471 c 0.07 -0.149 0.14 -0.3 0.23 -0.43 c 0.09 -0.14 0.2 -0.271 0.31 -0.38 c 0.58 -0.58 1.45 -0.851 2.26 -0.69 c 0.16 0.04 0.32 0.08 0.47 0.15 c 0.15 0.06 0.29 0.14 0.43 0.229 c 0.14 0.091 0.26 0.19 0.38 0.311 c 0.12 0.109 0.22 0.24 0.31 0.38 c 0.09 0.13 0.17 0.28 0.23 0.43 c 0.06 0.15 0.11 0.311 0.14 0.471 c 0.03 0.159 0.05 0.319 0.05 0.489 c 0 0.65 -0.27 1.3 -0.73 1.761 c -0.12 0.119 -0.24 0.22 -0.38 0.31 c -0.14 0.09 -0.28 0.17 -0.43 0.229 c -0.15 0.07 -0.31 0.11 -0.47 0.15 C 14.14 64.75 13.97 64.77 13.81 64.77 z" style="stroke: none; stroke-width: 1; stroke-dasharray: none; stroke-linecap: butt; stroke-linejoin: miter; stroke-miterlimit: 10; fill: rgb(0,0,0); fill-rule: nonzero; opacity: 1;" transform=" matrix(1 0 0 1 0 0) " stroke-linecap="round"></path>
&#x9;<path d="M 33.49 70.227 c -4.391 0 -7.962 -3.571 -7.962 -7.962 s 3.572 -7.963 7.962 -7.963 s 7.963 3.572 7.963 7.963 S 37.881 70.227 33.49 70.227 z M 33.49 57.302 c -2.736 0 -4.962 2.227 -4.962 4.963 s 2.226 4.962 4.962 4.962 s 4.963 -2.226 4.963 -4.962 S 36.227 57.302 33.49 57.302 z" style="stroke: none; stroke-width: 1; stroke-dasharray: none; stroke-linecap: butt; stroke-linejoin: miter; stroke-miterlimit: 10; fill: rgb(0,0,0); fill-rule: nonzero; opacity: 1;" transform=" matrix(1 0 0 1 0 0) " stroke-linecap="round"></path>
&#x9;<path d="M 33.49 64.77 c -0.16 0 -0.33 -0.02 -0.49 -0.05 c -0.16 -0.04 -0.32 -0.08 -0.47 -0.15 c -0.15 -0.06 -0.29 -0.14 -0.43 -0.229 c -0.13 -0.09 -0.26 -0.19 -0.38 -0.31 c -0.46 -0.461 -0.73 -1.11 -0.73 -1.761 c 0 -0.17 0.02 -0.33 0.05 -0.489 c 0.03 -0.16 0.08 -0.32 0.14 -0.471 c 0.06 -0.149 0.14 -0.3 0.23 -0.43 c 0.09 -0.14 0.2 -0.271 0.31 -0.38 c 0.12 -0.12 0.25 -0.22 0.38 -0.311 c 0.14 -0.09 0.28 -0.17 0.43 -0.229 c 0.15 -0.07 0.31 -0.11 0.47 -0.15 c 0.81 -0.16 1.68 0.11 2.26 0.69 c 0.11 0.109 0.22 0.24 0.31 0.38 c 0.09 0.13 0.17 0.28 0.23 0.43 c 0.06 0.15 0.11 0.311 0.14 0.471 c 0.03 0.159 0.05 0.319 0.05 0.489 c 0 0.16 -0.02 0.32 -0.05 0.48 c -0.03 0.16 -0.08 0.319 -0.14 0.47 s -0.14 0.3 -0.23 0.43 c -0.09 0.141 -0.2 0.271 -0.31 0.381 c -0.12 0.119 -0.25 0.22 -0.38 0.31 c -0.14 0.09 -0.28 0.17 -0.43 0.229 c -0.15 0.07 -0.31 0.11 -0.47 0.15 C 33.82 64.75 33.65 64.77 33.49 64.77 z" style="stroke: none; stroke-width: 1; stroke-dasharray: none; stroke-linecap: butt; stroke-linejoin: miter; stroke-miterlimit: 10; fill: rgb(0,0,0); fill-rule: nonzero; opacity: 1;" transform=" matrix(1 0 0 1 0 0) " stroke-linecap="round"></path>
&#x9;<path d="M 23.651 63.751 c -0.001 0.005 -0.001 0.009 -0.002 0.014 h 0.004 C 23.653 63.76 23.652 63.755 23.651 63.751 z" style="stroke: none; stroke-width: 1; stroke-dasharray: none; stroke-linecap: butt; stroke-linejoin: miter; stroke-miterlimit: 10; fill: rgb(0,0,0); fill-rule: nonzero; opacity: 1;" transform=" matrix(1 0 0 1 0 0) " stroke-linecap="round"></path>
&#x9;<path d="M 76.726 23.916 h -7.524 l -15.059 -4.091 c -0.45 -0.121 -0.933 -0.028 -1.305 0.256 c -0.371 0.284 -0.589 0.724 -0.589 1.191 v 28.926 H 3.846 C 1.725 50.199 0 51.925 0 54.045 v 4.128 c 0 1.501 0.585 2.912 1.648 3.972 c 0.648 0.647 1.435 1.091 2.286 1.357 c -0.051 -0.406 -0.085 -0.817 -0.085 -1.237 c 0 -5.493 4.469 -9.963 9.963 -9.963 c 4.987 0 9.118 3.688 9.839 8.477 c 0.721 -4.789 4.852 -8.477 9.839 -8.477 c 5.494 0 9.963 4.47 9.963 9.963 c 0 0.511 -0.051 1.009 -0.125 1.5 H 63.25 c -0.075 -0.491 -0.125 -0.989 -0.125 -1.5 c 0 -5.493 4.47 -9.963 9.963 -9.963 s 9.962 4.47 9.962 9.963 c 0 0.516 -0.052 1.02 -0.128 1.515 l 2.089 0.009 c 2.751 0 4.989 -2.238 4.989 -4.989 V 47.11 C 90 37.787 86.465 23.916 76.726 23.916 z M 70.501 41.914 V 26.916 h 6.225 c 5.701 0 8.877 7.643 9.902 14.998 H 70.501 z" style="stroke: none; stroke-width: 1; stroke-dasharray: none; stroke-linecap: butt; stroke-linejoin: miter; stroke-miterlimit: 10; fill: rgb(0,0,0); fill-rule: nonzero; opacity: 1;" transform=" matrix(1 0 0 1 0 0) " stroke-linecap="round"></path>
</g>
</svg>